<?xml version="1.0" encoding="utf-8"?>
<!-- Generator: Adobe Illustrator 28.1.0, SVG Export Plug-In . SVG Version: 6.00 Build 0)  -->
<svg version="1.1" id="Layer_1" xmlns="http://www.w3.org/2000/svg" xmlns:xlink="http://www.w3.org/1999/xlink" x="0px" y="0px"
	 viewBox="0 0 82.6 36" style="enable-background:new 0 0 82.6 36;" xml:space="preserve">
<style type="text/css">
	.st0{fill:#2271FF;}
	.st1{fill:#FFFFFE;}
</style>
<path id="Gear" class="st0" d="M36,15h-5.4c-0.3-1.4-0.9-2.7-1.6-3.8l3.8-3.8c0,0,0,0,0,0l-4.2-4.2l-3.8,3.8
	c-1.2-0.7-2.4-1.3-3.8-1.6V0h-6v5.4c-1.4,0.3-2.7,0.9-3.8,1.6L7.4,3.2L3.1,7.4l3.8,3.8c-0.7,1.2-1.3,2.4-1.6,3.8H0v6h5.4
	c0.3,1.4,0.9,2.6,1.6,3.8l-3.8,3.8c0,0,0,0,0,0l4.2,4.2l3.8-3.8c1.2,0.7,2.4,1.3,3.8,1.6V36h6v-5.4c1.4-0.3,2.6-0.9,3.8-1.6l3.8,3.8
	l4.2-4.2c0,0,0,0,0,0l-3.8-3.8c0.7-1.2,1.3-2.4,1.6-3.8H36V15z M19.6,25.9c-5.6,1.1-10.5-3.8-9.4-9.4c0.6-3.1,3.1-5.7,6.3-6.3
	c5.6-1.1,10.5,3.8,9.4,9.4C25.3,22.7,22.7,25.3,19.6,25.9z"/>
<g id="Text">
	<path id="Y" class="st1" d="M82.6,14.4l-6.1,14.2h-4.1l2.4-5.1l-4-9.1H75l1.8,4.9l1.7-4.9H82.6z"/>
	<path id="R" class="st1" d="M69.1,14.8c0.6-0.3,1.1-0.5,1.7-0.5v4h-1.1c-0.7,0-1.2,0.1-1.6,0.4c-0.3,0.2-0.5,0.7-0.5,1.3V24h-3.8
		v-9.6h3.8v1.8C68,15.6,68.5,15.1,69.1,14.8z"/>
	<path id="O" class="st1" d="M55,23.5c-0.8-0.4-1.4-1-1.8-1.7c-0.4-0.7-0.7-1.6-0.7-2.6c0-1,0.2-1.9,0.7-2.6c0.4-0.7,1-1.3,1.8-1.7
		c0.8-0.4,1.6-0.6,2.6-0.6c1,0,1.8,0.2,2.6,0.6c0.8,0.4,1.4,1,1.8,1.7s0.7,1.6,0.7,2.6c0,1-0.2,1.9-0.7,2.6c-0.4,0.7-1,1.3-1.8,1.7
		s-1.6,0.6-2.6,0.6C56.7,24.1,55.8,23.9,55,23.5z M58.5,20.4c0.2-0.3,0.4-0.7,0.4-1.2c0-0.5-0.1-1-0.4-1.2s-0.5-0.4-0.9-0.4
		s-0.6,0.1-0.9,0.4c-0.2,0.3-0.4,0.7-0.4,1.2c0,0.5,0.1,1,0.3,1.2c0.2,0.3,0.5,0.4,0.9,0.4C58,20.8,58.3,20.7,58.5,20.4z"/>
	<path id="T" class="st1" d="M51.6,20.7V24h-1.4c-2.6,0-3.9-1.3-3.9-3.9v-2.5h-1.2v-3.1h1.2v-2.3H50v2.3h1.6v3.1H50v2.6
		c0,0.2,0.1,0.4,0.2,0.5c0.1,0.1,0.3,0.2,0.5,0.2H51.6z"/>
	<path id="C" class="st1" d="M35.4,16.5c0.4-0.7,1-1.3,1.7-1.7c0.7-0.4,1.6-0.6,2.5-0.6c1.2,0,2.3,0.4,3.2,1.1s1.4,1.7,1.6,2.9h-4
		c-0.1-0.5-0.4-0.7-0.9-0.7c-0.3,0-0.5,0.1-0.7,0.4s-0.3,0.7-0.3,1.3c0,0.6,0.1,1,0.3,1.3c0.2,0.3,0.4,0.4,0.7,0.4
		c0.4,0,0.7-0.2,0.9-0.7h4c-0.2,1.2-0.8,2.2-1.6,2.9s-1.9,1.1-3.2,1.1c-1,0-1.8-0.2-2.5-0.6s-1.3-1-1.7-1.7
		c-0.4-0.7-0.6-1.6-0.6-2.6C34.8,18.2,35,17.3,35.4,16.5z"/>
	<path id="A" class="st1" d="M23.7,16.5c0.3-0.7,0.8-1.3,1.4-1.7s1.3-0.6,2-0.6c0.6,0,1.2,0.1,1.6,0.4c0.5,0.3,0.8,0.6,1,1v-1.3h3.8
		V24h-3.8v-1.3c-0.2,0.4-0.6,0.8-1,1c-0.5,0.3-1,0.4-1.6,0.4c-0.7,0-1.4-0.2-2-0.6c-0.6-0.4-1.1-1-1.4-1.7s-0.5-1.6-0.5-2.6
		C23.2,18.1,23.4,17.3,23.7,16.5z M29.4,18c-0.3-0.3-0.6-0.4-1-0.4s-0.7,0.1-1,0.4s-0.4,0.7-0.4,1.2s0.1,0.9,0.4,1.2s0.6,0.4,1,0.4
		s0.7-0.1,1-0.4s0.4-0.7,0.4-1.2S29.7,18.2,29.4,18z"/>
	<path id="F" class="st1" d="M22.5,11.9v3h-4.7v1.7h3.4v2.8h-3.4V24H14v-12H22.5z"/>
</g>
</svg>
